<svg xmlns="http://www.w3.org/2000/svg" viewBox="0 0 760 256" role="img" aria-label="kahya">
  <g transform="translate(0 0) scale(0.5)">
  <g>
    <circle cx="256" cy="318" r="195" stroke="#F2B33D" stroke-width="2" fill="none" opacity="0.10"/>
    <circle cx="256" cy="318" r="170" stroke="#F2B33D" stroke-width="2" fill="none" opacity="0.07"/>
    <rect x="230.7" y="118.4" width="50.6" height="31.6" rx="12.6" fill="#160F08" stroke="#F2B33D" stroke-width="4.9"/>
    <circle cx="256" cy="106.4" r="13.4" stroke="#F2B33D" stroke-width="4.9" fill="none"/>
    <circle cx="256" cy="318" r="158" fill="#1C1309" stroke="#F2B33D" stroke-width="7"/>
    <circle cx="256" cy="318" r="135.9" fill="#0E0905"/>
    <circle cx="256" cy="318" r="126.4" stroke="#F2B33D" stroke-width="1.6" fill="none" opacity="0.45"/>
    <line x1="366.6" y1="318.0" x2="382.4" y2="318.0" stroke="#F2B33D" stroke-width="4.2" opacity="0.95" stroke-linecap="round"/>
    <line x1="375.4" y1="330.6" x2="381.7" y2="331.2" stroke="#F2B33D" stroke-width="1.8" opacity="0.42" stroke-linecap="round"/>
    <line x1="373.5" y1="343.0" x2="379.6" y2="344.3" stroke="#F2B33D" stroke-width="1.8" opacity="0.42" stroke-linecap="round"/>
    <line x1="370.2" y1="355.1" x2="376.2" y2="357.1" stroke="#F2B33D" stroke-width="1.8" opacity="0.42" stroke-linecap="round"/>
    <line x1="365.7" y1="366.8" x2="371.5" y2="369.4" stroke="#F2B33D" stroke-width="1.8" opacity="0.42" stroke-linecap="round"/>
    <line x1="351.8" y1="373.3" x2="365.5" y2="381.2" stroke="#F2B33D" stroke-width="4.2" opacity="0.95" stroke-linecap="round"/>
    <line x1="353.1" y1="388.6" x2="358.3" y2="392.3" stroke="#F2B33D" stroke-width="1.8" opacity="0.42" stroke-linecap="round"/>
    <line x1="345.2" y1="398.3" x2="349.9" y2="402.6" stroke="#F2B33D" stroke-width="1.8" opacity="0.42" stroke-linecap="round"/>
    <line x1="336.3" y1="407.2" x2="340.6" y2="411.9" stroke="#F2B33D" stroke-width="1.8" opacity="0.42" stroke-linecap="round"/>
    <line x1="326.6" y1="415.1" x2="330.3" y2="420.3" stroke="#F2B33D" stroke-width="1.8" opacity="0.42" stroke-linecap="round"/>
    <line x1="311.3" y1="413.8" x2="319.2" y2="427.5" stroke="#F2B33D" stroke-width="4.2" opacity="0.95" stroke-linecap="round"/>
    <line x1="304.8" y1="427.7" x2="307.4" y2="433.5" stroke="#F2B33D" stroke-width="1.8" opacity="0.42" stroke-linecap="round"/>
    <line x1="293.1" y1="432.2" x2="295.1" y2="438.2" stroke="#F2B33D" stroke-width="1.8" opacity="0.42" stroke-linecap="round"/>
    <line x1="281.0" y1="435.5" x2="282.3" y2="441.6" stroke="#F2B33D" stroke-width="1.8" opacity="0.42" stroke-linecap="round"/>
    <line x1="268.6" y1="437.4" x2="269.2" y2="443.7" stroke="#F2B33D" stroke-width="1.8" opacity="0.42" stroke-linecap="round"/>
    <line x1="256.0" y1="428.6" x2="256.0" y2="444.4" stroke="#F2B33D" stroke-width="4.2" opacity="0.95" stroke-linecap="round"/>
    <line x1="243.4" y1="437.4" x2="242.8" y2="443.7" stroke="#F2B33D" stroke-width="1.8" opacity="0.42" stroke-linecap="round"/>
    <line x1="231.0" y1="435.5" x2="229.7" y2="441.6" stroke="#F2B33D" stroke-width="1.8" opacity="0.42" stroke-linecap="round"/>
    <line x1="218.9" y1="432.2" x2="216.9" y2="438.2" stroke="#F2B33D" stroke-width="1.8" opacity="0.42" stroke-linecap="round"/>
    <line x1="207.2" y1="427.7" x2="204.6" y2="433.5" stroke="#F2B33D" stroke-width="1.8" opacity="0.42" stroke-linecap="round"/>
    <line x1="200.7" y1="413.8" x2="192.8" y2="427.5" stroke="#F2B33D" stroke-width="4.2" opacity="0.95" stroke-linecap="round"/>
    <line x1="185.4" y1="415.1" x2="181.7" y2="420.3" stroke="#F2B33D" stroke-width="1.8" opacity="0.42" stroke-linecap="round"/>
    <line x1="175.7" y1="407.2" x2="171.4" y2="411.9" stroke="#F2B33D" stroke-width="1.8" opacity="0.42" stroke-linecap="round"/>
    <line x1="166.8" y1="398.3" x2="162.1" y2="402.6" stroke="#F2B33D" stroke-width="1.8" opacity="0.42" stroke-linecap="round"/>
    <line x1="158.9" y1="388.6" x2="153.7" y2="392.3" stroke="#F2B33D" stroke-width="1.8" opacity="0.42" stroke-linecap="round"/>
    <line x1="160.2" y1="373.3" x2="146.5" y2="381.2" stroke="#F2B33D" stroke-width="4.2" opacity="0.95" stroke-linecap="round"/>
    <line x1="146.3" y1="366.8" x2="140.5" y2="369.4" stroke="#F2B33D" stroke-width="1.8" opacity="0.42" stroke-linecap="round"/>
    <line x1="141.8" y1="355.1" x2="135.8" y2="357.1" stroke="#F2B33D" stroke-width="1.8" opacity="0.42" stroke-linecap="round"/>
    <line x1="138.5" y1="343.0" x2="132.4" y2="344.3" stroke="#F2B33D" stroke-width="1.8" opacity="0.42" stroke-linecap="round"/>
    <line x1="136.6" y1="330.6" x2="130.3" y2="331.2" stroke="#F2B33D" stroke-width="1.8" opacity="0.42" stroke-linecap="round"/>
    <line x1="145.4" y1="318.0" x2="129.6" y2="318.0" stroke="#F2B33D" stroke-width="4.2" opacity="0.95" stroke-linecap="round"/>
    <line x1="136.6" y1="305.4" x2="130.3" y2="304.8" stroke="#F2B33D" stroke-width="1.8" opacity="0.42" stroke-linecap="round"/>
    <line x1="138.5" y1="293.0" x2="132.4" y2="291.7" stroke="#F2B33D" stroke-width="1.8" opacity="0.42" stroke-linecap="round"/>
    <line x1="141.8" y1="280.9" x2="135.8" y2="278.9" stroke="#F2B33D" stroke-width="1.8" opacity="0.42" stroke-linecap="round"/>
    <line x1="146.3" y1="269.2" x2="140.5" y2="266.6" stroke="#F2B33D" stroke-width="1.8" opacity="0.42" stroke-linecap="round"/>
    <line x1="160.2" y1="262.7" x2="146.5" y2="254.8" stroke="#F2B33D" stroke-width="4.2" opacity="0.95" stroke-linecap="round"/>
    <line x1="158.9" y1="247.4" x2="153.7" y2="243.7" stroke="#F2B33D" stroke-width="1.8" opacity="0.42" stroke-linecap="round"/>
    <line x1="166.8" y1="237.7" x2="162.1" y2="233.4" stroke="#F2B33D" stroke-width="1.8" opacity="0.42" stroke-linecap="round"/>
    <line x1="175.7" y1="228.8" x2="171.4" y2="224.1" stroke="#F2B33D" stroke-width="1.8" opacity="0.42" stroke-linecap="round"/>
    <line x1="185.4" y1="220.9" x2="181.7" y2="215.7" stroke="#F2B33D" stroke-width="1.8" opacity="0.42" stroke-linecap="round"/>
    <line x1="200.7" y1="222.2" x2="192.8" y2="208.5" stroke="#F2B33D" stroke-width="4.2" opacity="0.95" stroke-linecap="round"/>
    <line x1="207.2" y1="208.3" x2="204.6" y2="202.5" stroke="#F2B33D" stroke-width="1.8" opacity="0.42" stroke-linecap="round"/>
    <line x1="218.9" y1="203.8" x2="216.9" y2="197.8" stroke="#F2B33D" stroke-width="1.8" opacity="0.42" stroke-linecap="round"/>
    <line x1="231.0" y1="200.5" x2="229.7" y2="194.4" stroke="#F2B33D" stroke-width="1.8" opacity="0.42" stroke-linecap="round"/>
    <line x1="243.4" y1="198.6" x2="242.8" y2="192.3" stroke="#F2B33D" stroke-width="1.8" opacity="0.42" stroke-linecap="round"/>
    <line x1="256.0" y1="207.4" x2="256.0" y2="191.6" stroke="#F2B33D" stroke-width="4.2" opacity="0.95" stroke-linecap="round"/>
    <line x1="268.6" y1="198.6" x2="269.2" y2="192.3" stroke="#F2B33D" stroke-width="1.8" opacity="0.42" stroke-linecap="round"/>
    <line x1="281.0" y1="200.5" x2="282.3" y2="194.4" stroke="#F2B33D" stroke-width="1.8" opacity="0.42" stroke-linecap="round"/>
    <line x1="293.1" y1="203.8" x2="295.1" y2="197.8" stroke="#F2B33D" stroke-width="1.8" opacity="0.42" stroke-linecap="round"/>
    <line x1="304.8" y1="208.3" x2="307.4" y2="202.5" stroke="#F2B33D" stroke-width="1.8" opacity="0.42" stroke-linecap="round"/>
    <line x1="311.3" y1="222.2" x2="319.2" y2="208.5" stroke="#F2B33D" stroke-width="4.2" opacity="0.95" stroke-linecap="round"/>
    <line x1="326.6" y1="220.9" x2="330.3" y2="215.7" stroke="#F2B33D" stroke-width="1.8" opacity="0.42" stroke-linecap="round"/>
    <line x1="336.3" y1="228.8" x2="340.6" y2="224.1" stroke="#F2B33D" stroke-width="1.8" opacity="0.42" stroke-linecap="round"/>
    <line x1="345.2" y1="237.7" x2="349.9" y2="233.4" stroke="#F2B33D" stroke-width="1.8" opacity="0.42" stroke-linecap="round"/>
    <line x1="353.1" y1="247.4" x2="358.3" y2="243.7" stroke="#F2B33D" stroke-width="1.8" opacity="0.42" stroke-linecap="round"/>
    <line x1="351.8" y1="262.7" x2="365.5" y2="254.8" stroke="#F2B33D" stroke-width="4.2" opacity="0.95" stroke-linecap="round"/>
    <line x1="365.7" y1="269.2" x2="371.5" y2="266.6" stroke="#F2B33D" stroke-width="1.8" opacity="0.42" stroke-linecap="round"/>
    <line x1="370.2" y1="280.9" x2="376.2" y2="278.9" stroke="#F2B33D" stroke-width="1.8" opacity="0.42" stroke-linecap="round"/>
    <line x1="373.5" y1="293.0" x2="379.6" y2="291.7" stroke="#F2B33D" stroke-width="1.8" opacity="0.42" stroke-linecap="round"/>
    <line x1="375.4" y1="305.4" x2="381.7" y2="304.8" stroke="#F2B33D" stroke-width="1.8" opacity="0.42" stroke-linecap="round"/>
    <filter id="kg" x="-80%" y="-80%" width="260%" height="260%"><feGaussianBlur stdDeviation="7.9" result="b"/></filter>
    <g filter="url(#kg)" opacity="0.5">
      <line x1="256" y1="318" x2="301.3" y2="253.3" stroke="#F2B33D" stroke-width="8.7" stroke-linecap="round"/>
      <line x1="256" y1="318" x2="309.7" y2="411.0" stroke="#F2B33D" stroke-width="6.3" stroke-linecap="round"/>
    </g>
    <line x1="256" y1="318" x2="301.3" y2="253.3" stroke="#FFF3DC" stroke-width="8.7" stroke-linecap="round"/>
    <line x1="256" y1="318" x2="309.7" y2="411.0" stroke="#F2B33D" stroke-width="6.3" stroke-linecap="round"/>
    <circle cx="256" cy="318" r="8.7" fill="#F2B33D"/>
    <circle cx="256" cy="318" r="3.5" fill="#0E0905"/>
    <path d="M 167.3 274.6 L 177.6 285.6 L 196.5 262.7" stroke="#F2B33D" stroke-width="4.4" stroke-linecap="round" stroke-linejoin="round" fill="none" opacity="0.9"/>
  </g>
  </g>
  <text x="316" y="182" font-family="Inter, 'Helvetica Neue', Arial, sans-serif" font-size="120" font-weight="700" letter-spacing="0.14em" fill="#FFF3DC">kahya</text>
</svg>
